# xmcd
#
# Track frame offsets:
#	150
#	12592
#	25355
#	45107
#	60130
#	75385
#	89607
#	105512
#	120072
#	134492
#	148630
#	169272
#
# Disc length: 2500 seconds
#
# Revision: 0
# Processed by: cddbd v1.5.2PL0 Copyright (c) Steve Scherf et al.
# Submitted via: EasyCDDAExtractor 4.6.9.1
#
DISCID=8b09c20c
DTITLE=Ronnie Reno and The Reno Tradition - In Concert
DYEAR=2004
DGENRE=Bluegrass
TTITLE0=Drifting With The Tide
TTITLE1=Mr.Coachman
TTITLE2=T For Texas
TTITLE3=Hard To Survive
TTITLE4=Mandolina -Special Guest Hershel Sizemore
TTITLE5=High On A Hilltop
TTITLE6=I Wouldn't Change You If I Could
TTITLE7=Love Please Come Home
TTITLE8=Talk Of The Town
TTITLE9=Nine Pound Hammer
TTITLE10=Kentucky Gold
TTITLE11=Bully Of The Town
EXTD=
EXTT0=
EXTT1=
EXTT2=
EXTT3=
EXTT4=
EXTT5=
EXTT6=
EXTT7=
EXTT8=
EXTT9=
EXTT10=
EXTT11=
PLAYORDER=
